<svg xmlns="http://www.w3.org/2000/svg" xmlns:xlink="http://www.w3.org/1999/xlink" width="500" zoomAndPan="magnify" viewBox="0 0 375 374.999991" height="500" preserveAspectRatio="xMidYMid meet" version="1.0"><defs><clipPath id="id1"><path d="M 31.351562 67.195312 L 343.351562 67.195312 L 343.351562 286.945312 L 31.351562 286.945312 Z M 31.351562 67.195312 " clip-rule="nonzero"/></clipPath></defs><g clip-path="url(#id1)"><path fill="#e91d00" d="M 340.234375 114.628906 C 340.234375 114.628906 337.179688 93.105469 327.832031 83.628906 C 315.980469 71.183594 302.664062 71.125 296.585938 70.390625 C 252.902344 67.242188 187.414062 67.242188 187.414062 67.242188 L 187.289062 67.242188 C 187.289062 67.242188 121.800781 67.242188 78.117188 70.390625 C 72.039062 71.125 58.722656 71.183594 46.867188 83.628906 C 37.523438 93.105469 34.46875 114.628906 34.46875 114.628906 C 34.46875 114.628906 31.351562 139.878906 31.351562 165.164062 L 31.351562 188.855469 C 31.351562 214.140625 34.46875 239.390625 34.46875 239.390625 C 34.46875 239.390625 37.523438 260.914062 46.867188 270.390625 C 58.75 282.832031 74.328125 282.4375 81.265625 283.75 C 106.21875 286.136719 187.351562 286.898438 187.351562 286.898438 C 187.351562 286.898438 252.902344 286.808594 296.585938 283.628906 C 302.695312 282.894531 315.980469 282.832031 327.832031 270.390625 C 337.179688 260.914062 340.234375 239.390625 340.234375 239.390625 C 340.234375 239.390625 343.351562 214.109375 343.351562 188.855469 L 343.351562 165.164062 C 343.351562 139.878906 340.234375 114.628906 340.234375 114.628906 Z M 155.125 217.5625 L 155.125 129.820312 L 239.433594 173.84375 Z M 155.125 217.5625 " fill-opacity="1" fill-rule="nonzero"/></g><path fill="#ffffff" d="M 155.125 129.820312 L 155.125 217.5625 L 239.433594 173.84375 Z M 155.125 129.820312 " fill-opacity="1" fill-rule="nonzero"/></svg>