<svg xmlns="http://www.w3.org/2000/svg" xmlns:xlink="http://www.w3.org/1999/xlink" width="500" zoomAndPan="magnify" viewBox="0 0 375 374.999991" height="500" preserveAspectRatio="xMidYMid meet" version="1.0"><defs><clipPath id="id1"><path d="M 3.960938 3.960938 L 370.710938 3.960938 L 370.710938 369 L 3.960938 369 Z M 3.960938 3.960938 " clip-rule="nonzero"/></clipPath><clipPath id="id2"><path d="M 112 75 L 269 75 L 269 370.710938 L 112 370.710938 Z M 112 75 " clip-rule="nonzero"/></clipPath></defs><rect x="-37.5" width="450" fill="#ffffff" y="-37.499999" height="449.999989" fill-opacity="1"/><rect x="-37.5" width="450" fill="#ffffff" y="-37.499999" height="449.999989" fill-opacity="1"/><rect x="-37.5" width="450" fill="#ffffff" y="-37.499999" height="449.999989" fill-opacity="1"/><rect x="-37.5" width="450" fill="#ffffff" y="-37.499999" height="449.999989" fill-opacity="1"/><g clip-path="url(#id1)"><path fill="#1877f2" d="M 370.710938 187.335938 C 370.710938 86.0625 288.613281 3.960938 187.335938 3.960938 C 86.0625 3.960938 3.960938 86.0625 3.960938 187.335938 C 3.960938 278.863281 71.019531 354.726562 158.683594 368.484375 L 158.683594 240.34375 L 112.125 240.34375 L 112.125 187.335938 L 158.683594 187.335938 L 158.683594 146.9375 C 158.683594 100.976562 186.0625 75.59375 227.949219 75.59375 C 248.011719 75.59375 268.996094 79.175781 268.996094 79.175781 L 268.996094 124.300781 L 245.871094 124.300781 C 223.09375 124.300781 215.988281 138.4375 215.988281 152.9375 L 215.988281 187.335938 L 266.847656 187.335938 L 258.71875 240.34375 L 215.988281 240.34375 L 215.988281 368.484375 C 303.65625 354.726562 370.710938 278.863281 370.710938 187.335938 " fill-opacity="1" fill-rule="nonzero"/></g><g clip-path="url(#id2)"><path fill="#ffffff" d="M 258.71875 240.34375 L 266.847656 187.335938 L 215.988281 187.335938 L 215.988281 152.9375 C 215.988281 138.4375 223.09375 124.300781 245.871094 124.300781 L 268.996094 124.300781 L 268.996094 79.175781 C 268.996094 79.175781 248.011719 75.59375 227.949219 75.59375 C 186.0625 75.59375 158.683594 100.976562 158.683594 146.9375 L 158.683594 187.335938 L 112.125 187.335938 L 112.125 240.34375 L 158.683594 240.34375 L 158.683594 368.484375 C 168.019531 369.949219 177.589844 370.710938 187.335938 370.710938 C 197.085938 370.710938 206.652344 369.949219 215.988281 368.484375 L 215.988281 240.34375 L 258.71875 240.34375 " fill-opacity="1" fill-rule="nonzero"/></g></svg>