<svg xmlns="http://www.w3.org/2000/svg" xmlns:xlink="http://www.w3.org/1999/xlink" width="500" zoomAndPan="magnify" viewBox="0 0 375 374.999991" height="500" preserveAspectRatio="xMidYMid meet" version="1.0"><defs><clipPath id="id1"><path d="M 9.304688 9.304688 L 365.554688 9.304688 L 365.554688 365.554688 L 9.304688 365.554688 Z M 9.304688 9.304688 " clip-rule="nonzero"/></clipPath></defs><rect x="-37.5" width="450" fill="#ffffff" y="-37.499999" height="449.999989" fill-opacity="1"/><rect x="-37.5" width="450" fill="#ffffff" y="-37.499999" height="449.999989" fill-opacity="1"/><rect x="-37.5" width="450" fill="#ffffff" y="-37.499999" height="449.999989" fill-opacity="1"/><g clip-path="url(#id1)"><path fill="#e52d27" d="M 365.554688 311.414062 C 365.554688 341.273438 341.273438 365.554688 311.414062 365.554688 L 63.445312 365.554688 C 33.589844 365.554688 9.304688 341.273438 9.304688 311.414062 L 9.304688 63.445312 C 9.304688 33.589844 33.589844 9.304688 63.445312 9.304688 L 311.414062 9.304688 C 341.273438 9.304688 365.554688 33.589844 365.554688 63.445312 Z M 365.554688 311.414062 " fill-opacity="1" fill-rule="nonzero"/></g><path fill="#ffffff" d="M 313.707031 190.25 C 313.707031 209.949219 313.707031 230.824219 309.308594 249.902344 C 306.210938 263.34375 295.246094 273.195312 281.992188 274.679688 C 250.707031 278.152344 218.992188 278.210938 187.460938 278.152344 C 155.871094 278.152344 124.277344 278.152344 92.933594 274.679688 C 79.738281 273.195312 68.710938 263.34375 65.613281 249.902344 C 61.214844 230.824219 61.214844 209.949219 61.214844 190.25 C 61.214844 170.550781 61.277344 149.675781 65.613281 130.59375 C 68.710938 117.152344 79.675781 107.304688 92.933594 105.816406 C 124.277344 102.285156 155.929688 102.285156 187.460938 102.285156 C 218.992188 102.285156 250.648438 102.285156 281.992188 105.816406 C 295.183594 107.304688 306.210938 117.152344 309.308594 130.59375 C 313.707031 149.675781 313.707031 170.550781 313.707031 190.25 Z M 313.707031 190.25 " fill-opacity="1" fill-rule="nonzero"/><path fill="#e52d27" d="M 160.886719 143.292969 L 160.886719 237.636719 L 234.167969 190.433594 Z M 160.886719 143.292969 " fill-opacity="1" fill-rule="nonzero"/></svg>